<svg xmlns="http://www.w3.org/2000/svg" viewBox="0 0 1200 600" width="1200" height="600">
  <defs>
    <linearGradient id="sky-trancoso" x1="0" y1="0" x2="0" y2="1">
      <stop offset="0%" stop-color="#0D0518"></stop>
      <stop offset="55%" stop-color="#1A0B2E"></stop>
      <stop offset="100%" stop-color="#3B1552"></stop>
    </linearGradient>
  </defs>

  <rect width="1200" height="600" fill="url(#sky-trancoso)"></rect>

  
  <circle cx="240" cy="135" r="48" fill="#FFB627" opacity="0.16"></circle>
  <circle cx="240" cy="135" r="32" fill="#FFB627" opacity="0.92"></circle>

  
  <g fill="#FFB627" opacity="0.6">
    <circle cx="420" cy="60" r="1.1"></circle>
    <circle cx="560" cy="90" r="0.9"></circle>
    <circle cx="690" cy="50" r="1.2"></circle>
    <circle cx="820" cy="100" r="0.8"></circle>
    <circle cx="940" cy="60" r="1"></circle>
    <circle cx="1060" cy="120" r="1.1"></circle>
    <circle cx="1140" cy="50" r="0.9"></circle>
    <circle cx="380" cy="170" r="0.8"></circle>
    <circle cx="760" cy="175" r="0.9"></circle>
  </g>

  
  <path d="M0,440 Q300,425 600,435 Q900,422 1200,438 L1200,478 L0,478 Z" fill="#3B1552" opacity="0.6"></path>
  <path d="M0,470 Q300,460 600,468 Q900,458 1200,470 L1200,510 L0,510 Z" fill="#1A0B2E"></path>

  
  <g fill="#1A0B2E">
    
    <rect x="0" y="370" width="1200" height="135"></rect>
    
    <rect x="0" y="354" width="22" height="18"></rect>
    <rect x="30" y="354" width="22" height="18"></rect>
    <rect x="60" y="354" width="22" height="18"></rect>
    <rect x="90" y="354" width="22" height="18"></rect>
    <rect x="120" y="354" width="22" height="18"></rect>
    <rect x="150" y="354" width="22" height="18"></rect>
    <rect x="180" y="354" width="22" height="18"></rect>
    <rect x="210" y="354" width="22" height="18"></rect>
    <rect x="240" y="354" width="22" height="18"></rect>
    <rect x="270" y="354" width="22" height="18"></rect>
    <rect x="300" y="354" width="22" height="18"></rect>
    <rect x="330" y="354" width="22" height="18"></rect>
    <rect x="360" y="354" width="22" height="18"></rect>
    <rect x="390" y="354" width="22" height="18"></rect>
    <rect x="420" y="354" width="22" height="18"></rect>
    <rect x="450" y="354" width="22" height="18"></rect>
    <rect x="780" y="354" width="22" height="18"></rect>
    <rect x="810" y="354" width="22" height="18"></rect>
    <rect x="840" y="354" width="22" height="18"></rect>
    <rect x="870" y="354" width="22" height="18"></rect>
    <rect x="900" y="354" width="22" height="18"></rect>
    <rect x="930" y="354" width="22" height="18"></rect>
    <rect x="960" y="354" width="22" height="18"></rect>
    <rect x="990" y="354" width="22" height="18"></rect>
    <rect x="1020" y="354" width="22" height="18"></rect>
    <rect x="1050" y="354" width="22" height="18"></rect>
    <rect x="1080" y="354" width="22" height="18"></rect>
    <rect x="1110" y="354" width="22" height="18"></rect>
    <rect x="1140" y="354" width="22" height="18"></rect>
    <rect x="1170" y="354" width="22" height="18"></rect>
  </g>

  
  <g fill="#0D0518">
    <rect x="495" y="290" width="80" height="215"></rect>
    <rect x="625" y="290" width="80" height="215"></rect>
    
    <rect x="495" y="272" width="18" height="22"></rect>
    <rect x="521" y="272" width="18" height="22"></rect>
    <rect x="547" y="272" width="18" height="22"></rect>
    <rect x="563" y="272" width="12" height="22"></rect>
    <rect x="625" y="272" width="12" height="22"></rect>
    <rect x="645" y="272" width="18" height="22"></rect>
    <rect x="671" y="272" width="18" height="22"></rect>
    <rect x="697" y="272" width="8" height="22"></rect>
  </g>

  
  <rect x="575" y="380" width="50" height="125" fill="#0D0518"></rect>
  <path d="M575,400 Q600,360 625,400 L625,505 L575,505 Z" fill="#FFB627" opacity="0.85"></path>
  <path d="M583,402 Q600,372 617,402 L617,505 L583,505 Z" fill="#FFB627"></path>
  <ellipse cx="600" cy="510" rx="100" ry="10" fill="#FFB627" opacity="0.2"></ellipse>

  
  <g fill="#FFB627">
    <rect x="525" y="335" width="8" height="14" opacity="0.85"></rect>
    <rect x="552" y="370" width="8" height="14" opacity="0.7"></rect>
    <rect x="660" y="335" width="8" height="14" opacity="0.85"></rect>
    <rect x="660" y="400" width="8" height="14" opacity="0.6"></rect>
  </g>

  
  <rect x="0" y="505" width="1200" height="95" fill="#0D0518"></rect>
  <g stroke="#1A0B2E" stroke-width="1" opacity="0.4">
    <line x1="0" y1="535" x2="1200" y2="535"></line>
    <line x1="0" y1="555" x2="1200" y2="555"></line>
    <line x1="0" y1="575" x2="1200" y2="575"></line>
  </g>
</svg>